PathFileType	4	(X/Y/Z)	c:/Users/goper/Files/vsCode/490R/osim_files/A04/A04_Slow_05.trc
DataRate	CameraRate	NumFrames	NumMarkers	Units                	OrigDataRate	OrigDataStartFrame	OrigNumFrames
120.00	120.00	4	36	mm	120.0	651	1300
                Frame#	Time	LPSIS			LASIS			LTH1			LTH2			LTH3			LTH4			LLFE			LMFE			LSH1			LSH2			LSH3			LSH4			LLMAL			LMMAL			LCAL			LMTP5			LTOE			LMTP1			RPSIS			RASIS			RTH1			RTH2			RTH3			RTH4			RLFE			RMFE			RSH1			RSH2			RSH3			RSH4			RLMAL			RMMAL			RCAL			RMTP1			RTOE			RMTP5		
		X1	Y1	Z1	X2	Y2	Z2	X3	Y3	Z3	X4	Y4	Z4	X5	Y5	Z5	X6	Y6	Z6	X7	Y7	Z7	X8	Y8	Z8	X9	Y9	Z9	X10	Y10	Z10	X11	Y11	Z11	X12	Y12	Z12	X13	Y13	Z13	X14	Y14	Z14	X15	Y15	Z15	X16	Y16	Z16	X17	Y17	Z17	X18	Y18	Z18	X19	Y19	Z19	X20	Y20	Z20	X21	Y21	Z21	X22	Y22	Z22	X23	Y23	Z23	X24	Y24	Z24	X25	Y25	Z25	X26	Y26	Z26	X27	Y27	Z27	X28	Y28	Z28	X29	Y29	Z29	X30	Y30	Z30	X31	Y31	Z31	X32	Y32	Z32	X33	Y33	Z33	X34	Y34	Z34	X35	Y35	Z35	X36	Y36	Z36

651	5.41667	760.57098	1052.26038	374.49496	535.54694	1011.58533	458.35172	643.64301	693.20868	469.09323	643.50110	649.11145	465.63013	582.63025	691.13983	465.95844	588.18896	646.51392	462.19989	635.53546	522.70636	447.70135	608.77094	531.74817	310.89606	677.39893	423.95557	439.82437	673.47296	380.48785	435.25076	614.41669	421.72983	431.92914	620.79218	379.16971	426.75568	719.13733	105.13948	367.52621	691.04950	110.58803	285.79736	777.37512	65.91942	307.60547	579.52051	57.74279	410.08273	527.33490	73.58664	353.65533	541.33167	58.17659	307.54187	762.44080	1039.16187	268.17703	540.21002	1023.91394	173.29373	497.71774	734.40900	128.74364	471.86398	700.64923	129.52281	443.94724	767.79688	127.84338	424.43793	724.71777	130.54463	364.58557	597.03009	152.93066	368.68350	588.50201	273.95929	450.14444	376.50012	151.60747	452.95007	328.63025	159.33249	388.85129	364.94244	152.24269	402.11273	319.30994	155.22420	460.43585	133.99100	150.28116	442.34595	140.39140	285.21680	538.21857	89.01251	221.48656	317.28906	68.51864	271.51678	289.57889	90.52438	228.99437	319.48642	65.49491	154.46362
652	5.42500	753.34015	1051.95300	374.54581	528.65332	1010.82916	458.37021	639.08954	693.14294	468.96283	638.98889	648.87134	465.38806	578.07336	690.45660	465.79883	584.12878	646.01025	462.02344	632.68427	522.56158	447.50873	606.09802	531.35876	310.42905	675.05328	424.04126	439.59763	671.36566	380.60468	435.09506	612.64215	421.90625	432.13556	618.78833	378.91531	426.58798	718.95056	105.29134	367.52267	690.83942	110.66689	285.78146	777.27692	66.10672	307.60632	579.43048	57.66240	410.06931	527.13635	73.28213	353.49924	541.18744	58.06971	307.54535	755.21936	1039.04333	268.21985	533.03345	1023.54315	173.21425	490.54065	734.14838	129.67453	465.16922	700.35278	130.25487	437.33401	767.32507	128.06424	417.48474	724.17175	131.01894	357.08603	597.17822	153.66522	360.02551	589.07935	274.59750	432.62466	372.58795	153.70322	434.77112	325.61414	159.79890	372.08017	364.46750	153.35080	383.22055	318.27808	156.63441	433.51938	130.64948	151.99155	415.39804	138.14609	286.94049	508.91248	82.11720	223.72371	288.01596	72.56279	274.52097	260.86108	94.80376	230.68672	289.72440	68.46154	156.02715
653	5.43333	746.07635	1051.62146	374.54880	521.47314	1010.12952	458.30466	634.27716	692.73053	468.71396	634.92548	648.83331	465.19650	573.74628	690.12134	465.62613	579.99335	645.50653	461.72269	629.78107	522.48376	447.25952	603.06775	531.00305	310.19135	672.77972	424.24811	439.38367	669.36877	380.67191	434.89404	610.14777	421.38043	431.96133	616.92163	378.85080	426.46381	718.75653	105.51289	367.48343	690.99298	111.07381	285.57367	777.21710	66.46815	307.52634	579.33350	57.62526	410.03448	527.03894	73.10444	353.39978	541.09631	57.96383	307.44769	748.08435	1038.89673	268.21634	525.67273	1023.04858	173.12338	484.08572	733.47675	130.43686	459.35660	699.95154	131.08037	431.22794	766.21509	128.16992	410.87598	723.24432	131.47560	350.08020	596.75183	154.13306	351.77631	589.44580	275.10419	416.30655	369.13614	154.88853	416.14539	322.00864	162.39311	355.79932	363.97845	154.37718	364.89273	317.37521	157.88107	406.82687	127.40246	153.96802	388.69556	136.38748	288.71466	479.97925	76.19257	225.89819	258.76624	75.91923	275.75598	232.62099	99.70502	232.29793	260.63214	71.87914	157.87744
654	5.44167	738.71832	1051.47058	374.68680	513.10126	1009.16290	457.62030	629.93066	692.76587	468.63202	630.88916	648.77692	465.08453	569.47144	689.71735	465.52542	576.01111	645.09625	461.63168	626.90601	522.32587	447.07758	600.12390	530.63800	310.04022	670.54303	424.38187	439.23788	667.23535	380.76434	434.72864	607.86646	421.09015	431.75858	614.71228	378.51364	426.18851	718.51819	105.67969	367.47369	690.73749	111.18649	285.53650	777.06818	66.72966	307.49973	579.21008	57.59221	409.99829	526.89166	72.91810	353.35318	540.98700	57.82323	307.43854	740.72333	1038.67249	268.30154	518.25232	1022.45612	172.98680	477.89029	732.43433	131.36769	452.46863	698.54584	132.01564	425.17706	764.53699	128.69757	404.61331	721.97205	131.91219	343.58871	596.02142	154.78625	343.62677	589.40118	275.61539	400.92462	366.21643	156.30917	398.32761	318.91983	163.87320	339.91006	363.51379	155.48915	346.96286	316.54227	159.18706	380.47363	124.89785	155.94931	362.26761	135.11572	290.60681	450.95688	70.71465	228.30534	229.69423	80.09059	277.00525	205.09390	105.06576	233.80382	231.82227	76.00237	159.41689
